<?xml version="1.0" encoding="UTF-8"?>
<svg xmlns="http://www.w3.org/2000/svg" xmlns:xlink="http://www.w3.org/1999/xlink" viewBox="0 0 887.08 684.75">
  <defs>
    <style>
      .cls-1 {
        fill: #b07776;
      }

      .cls-1, .cls-2, .cls-3, .cls-4, .cls-5, .cls-6, .cls-7, .cls-8, .cls-9, .cls-10, .cls-11, .cls-12, .cls-13, .cls-14, .cls-15, .cls-16 {
        stroke: #231f20;
        stroke-miterlimit: 10;
      }

      .cls-2, .cls-6, .cls-10 {
        stroke-linecap: round;
      }

      .cls-2, .cls-10, .cls-14 {
        fill: none;
      }

      .cls-17 {
        fill: url(#linear-gradient-2);
      }

      .cls-18, .cls-9 {
        fill: #fff;
      }

      .cls-3 {
        fill: #5d7936;
      }

      .cls-3, .cls-5, .cls-8, .cls-13, .cls-15 {
        stroke-width: .75px;
      }

      .cls-4 {
        opacity: .15;
        stroke-width: .5px;
      }

      .cls-4, .cls-19, .cls-8, .cls-20, .cls-21, .cls-13, .cls-22 {
        fill: #231f20;
      }

      .cls-5, .cls-6, .cls-12 {
        fill: #ffe7a3;
      }

      .cls-19 {
        opacity: .08;
      }

      .cls-7 {
        fill: #404041;
      }

      .cls-7, .cls-10 {
        stroke-width: 2px;
      }

      .cls-20 {
        opacity: .11;
      }

      .cls-9 {
        stroke-width: .25px;
      }

      .cls-11 {
        fill: #414042;
      }

      .cls-21 {
        opacity: .07;
      }

      .cls-13 {
        opacity: .14;
      }

      .cls-15, .cls-16 {
        fill: #5c4319;
      }

      .cls-22 {
        opacity: .22;
      }

      .cls-23 {
        fill: #d3e2e0;
      }

      .cls-24 {
        fill: url(#linear-gradient);
      }
    </style>
    <linearGradient id="linear-gradient" x1="500.36" y1="162.17" x2="538.79" y2="162.17" gradientUnits="userSpaceOnUse">
      <stop offset=".18" stop-color="#e5ce93"/>
      <stop offset=".21" stop-color="#e7d094"/>
      <stop offset=".37" stop-color="#f4dd9c"/>
      <stop offset=".58" stop-color="#fce4a1"/>
      <stop offset="1" stop-color="#ffe7a3"/>
    </linearGradient>
    <linearGradient id="linear-gradient-2" x1="633.09" y1="174.41" x2="668.12" y2="174.41" gradientUnits="userSpaceOnUse">
      <stop offset="0" stop-color="#ffe7a3"/>
      <stop offset=".45" stop-color="#fde5a1"/>
      <stop offset=".62" stop-color="#f6de9d"/>
      <stop offset=".73" stop-color="#ead396"/>
      <stop offset=".77" stop-color="#e5ce93"/>
    </linearGradient>
  </defs>
  <g id="Layer_8" data-name="Layer 8">
    <path class="cls-11" d="M421.01,566.52c-5.85,17.48,10.32,49.26-5.77,79.15-1.78,3.3-5.38,9.24-3.3,14.84,4.32,11.6,29.48,12.18,42.87,12.37,84.21,1.17,87.08-7.56,123.66-3.3,65.02,7.57,97.53,11.36,103.88,13.19,2.63.76,11.24,3.33,15.66-.82,6.21-5.83-1.07-20.03-4.12-36.27-5.83-31.01,8.38-44.9,5.77-59.36-10.04-55.59-260.55-73.86-278.66-19.79Z"/>
  </g>
  <g id="Layer_1" data-name="Layer 1">
    <path class="cls-12" d="M500.99,92.63c-.2-.24-4.19-5.06-6.77-3.94-2.8,1.22-3.16,9.1-1.91,14.87.93,4.3,2.26,5.21,3.41,11.09.5,2.55.94,4.82.84,7.77-.24,7.42-3.55,9.87-2.04,12.71,1.62,3.04,7.37,3.87,7.37,3.87-1.38-15.4,8.54-34.79-.9-46.38Z"/>
    <path class="cls-12" d="M585.95,122.22c.2-.24,4.19-5.06,6.77-3.94,2.8,1.22,3.16,9.1,1.91,14.87-.93,4.3-2.26,5.21-3.41,11.09-.5,2.55-.94,4.82-.84,7.77.24,7.42,3.55,9.87,2.04,12.71-1.62,3.04-7.37,3.87-7.37,3.87,1.38-15.4-8.54-34.79.9-46.38Z"/>
    <path class="cls-12" d="M677.4,110.98c.25-.18,5.33-3.83,7.55-2.1,2.4,1.88.75,9.6-1.91,14.87-1.98,3.92-3.51,4.47-6.1,9.87-1.12,2.34-2.12,4.42-2.78,7.3-1.65,7.24.94,10.45-1.24,12.81-2.34,2.53-8.11,1.88-8.11,1.88,5.23-14.55.53-35.82,12.59-44.64Z"/>
  </g>
  <g id="neck">
    <path class="cls-12" d="M531.94,193.96c-.05.36-.69.66,2.11,10.56.74,2.62,1.54,6.06,2.24,10.76,1.49,10.07,1.17,17.41.79,27.23-.56,14.4-.92,21.7-4.74,26.44-2.99,3.71-6.08,4.84-6.71,8.68-.93,5.67,4.82,10.69,6.71,13.02,14.83,18.29,44.12,22.12,64.73,19.34,13.39-1.81,26.56-10.28,52.89-27.23,3.43-2.21,10.67-7.01,9.87-11.45-.51-2.8-3.85-3.34-7.1-5.92-5.35-4.24-4.88-9.53-8.29-30.39-3.06-18.69-3.38-22.26-1.58-28.02,2.47-7.94,6.01-8.82,5.53-11.91-2.65-17.08-114.42-15.05-116.43-1.11Z"/>
    <path class="cls-21" d="M645.28,201.38c.22.41-.74,1.09-2.34,4.32-1.58,3.18-2.23,5.73-2.42,6.38-3.46,11.75-20.67,29.25-20.67,29.25-16.54,16.81-24.8,25.21-38.93,29.25-7.21,2.06-20.64,5.9-31.23-1.54-10.63-7.47-12.46-22.15-12.54-22.87-.14-1.26.07-.1.09-8.55.03-12.18.02-18.38-1.22-23.96-1.11-5.01-1.94-5.58-1.3-6.52,3.4-5,25.33,13.69,52.36,13.96,29.84.3,56.98-21.94,58.2-19.71Z"/>
    <path class="cls-14" d="M557.59,242.11c.77,2.68,1.4,5.87,1.58,9.47.58,11.43-3.69,20.36-6.31,24.86"/>
    <path class="cls-14" d="M578.11,263.82c.44,1.18,1.34,3.09,3.16,4.74,3.89,3.52,9.78,3.85,14.21,1.97,4.31-1.82,6.41-5.38,7.1-6.71"/>
    <path class="cls-14" d="M616.4,241.32c1.78,8.87,2.78,13.88,3.55,17.76,1.81,9.11,2.86,14.54,7.1,20.13,1.07,1.41,2.08,2.47,2.76,3.16"/>
  </g>
  <g id="Layer_2" data-name="Layer 2">
    <path class="cls-12" d="M501.15,75.95c.13,1.95.73,7.28,1.18,16.18.37,7.26.55,10.88.39,15.39-.4,11.39-2.29,12.13-2.37,21.31-.07,8.58,2.37,18.55,2.37,18.55,4.48,17.78,6.73,26.67,12.88,36.76,3.2,5.25,7.51,9.91,16.14,19.23,4.93,5.32,4.1,4.02,30.7,27.62,3.71,3.29,8.85,7.84,16.27,9.38,3.84.8,8.68.87,9.24.88.65,0,5.85.06,9.82-.73,2.36-.47,6.56-1.69,17.23-10.85,10.65-9.15,16.38-15.19,16.38-15.19,21.29-21.17,22.86-21.03,26.73-27.48,4.68-7.81,6.23-14.42,8.4-23.7,3.19-13.63,3.72-27.19,5.92-41.18.52-3.32,1.05-6.54,2.76-17.37,1.79-11.36,2.69-17.05,2.76-17.76,1.46-14.6-6.33-27.13-13.02-37.89-5.46-8.78-14.18-22.79-31.57-32.76-27.44-15.72-55.69-9.46-63.94-7.5-4.96,1.18-25.93,6.59-44.6,24.86-5.44,5.32-24.87,24.35-23.68,42.23Z"/>
    <path class="cls-22" d="M582.63,68.2c-.02.41-.67.93-1.98,1.98-3.6,2.89-5.39,2.07-8.8,4.4-2.55,1.74-2.88,3.11-5.72,4.18-1.23.46-2.14.79-3.08.44-2.43-.91-1.8-5.1-3.74-5.72-1.4-.44-2.27,1.58-5.72,3.3-1.21.6-5.41,2.7-8.14,1.1-2.21-1.29-1.67-3.96-3.3-4.4-2.01-.53-3.11,3.44-7.26,5.5-4.68,2.33-6.93-.92-11.66,1.32-4.46,2.11-5.39,6.38-8.14,5.94-2.04-.33-2.55-2.85-4.18-2.64-1.59.2-1.65,2.66-3.96,4.84-1.86,1.75-5.01,3.16-6.24,2.38-2.69-1.69-.25-16.17,7.12-24.37,19.25-21.42,74.97-3.31,74.77,1.76Z"/>
    <path class="cls-22" d="M595.43,58.57c-.1.39.38,1.08,1.33,2.46,2.63,3.8,4.57,3.52,7.17,6.73,2.85,3.51,2.44,5.18,4.29,5.64,2.94.73,4.98-3.84,8.04-3.11,1.8.43,1.62,2.07,4.54,4.8.99.93,4.41,4.13,7.48,3.38,2.49-.61,2.73-3.32,4.42-3.27,2.08.06,2,4.18,5.38,7.34,3.82,3.57,6.9,1.1,10.79,4.6,3.74,3.36,3.55,7.82,6.1,8.02,1.84.14,2.47-2.17,4.72-2.26,2.31-.09,3.92,2.27,5.94,4.62,3.53,4.11,9.45,9.5,10.86,8.77,1.98-1.02-.13-16.45-8.91-28.03-20.55-27.11-70.99-24.25-72.16-19.69Z"/>
  </g>
  <g id="feats">
    <path id="eyebriw" class="cls-16" d="M609.38,109.8c-3.39,2.6-5.51,7.83-4.02,9.86.93,1.27,3.12,1.09,4.63.98,0,0,12.99-.88,26.38,1.17,5.88.9,11.02,2.63,11.89,2.93,7,2.4,10.56,4.87,11.25,4,.79-.99-2.68-5.67-6.94-9.14-3.38-2.75-7.24-4.73-18.11-7.55-13.95-3.63-21.01-5.38-25.09-2.25Z"/>
    <path class="cls-15" d="M589.69,3.34c-3.47.48-3.36-.4-8.42,0-4.69.37-8.99,1.45-8.95,1.84.04.37,4.08.16,4.08.26,0,.12-4.92.4-10.79,1.05-.86.1-5.77.68-9.47,3.03-.44.28-1.42.9-1.32,1.18.18.45,3.18-.14,3.16-.39-.02-.36-6.08-1.29-11.97.66-3.34,1.1-5.65,2.84-10.26,6.31-2.77,2.09-5.07,4.15-6.31,5.26-2.63,2.36-5.92,5.52-5.92,5.53,0,0-1.66,1.89-2.5,2.89-3.72,4.41-3.41,5.4-5.49,6.67-1.47.9-2.04.66-2.8,1.61,0,0-.66.84-1.32,4.47.26-.87-.29,1.93-.95,2.55-.59.56-1.31.35-3.92.21-.81-.04-3.9-.19-3.95.13-.05.31,2.83.46,3.16,1.71.28,1.07-1.63,1.63-2.5,3.82-.91,2.29.62,3.15-.13,5.66-.66,2.21-2.48,3.67-3.82,4.74-1.76,1.41-3.55,2.18-3.42,2.5.12.31,1.73-.53,2.5.13.86.74-.24,2.56-.53,5.66-.32,3.46.52,6.7,1.05,6.71.38,0,.69-1.61.79-1.58.14.04-1.05,2.71-.53,5.53.45,2.43,1.74,2.58,2.24,4.6.75,3.07-1.71,4.69-2.5,8.29-1.13,5.15,1.95,10.91,3.42,10.79,2.66-.21,4.54-19.91,10-25.26.21-.21,1.53-1.63,2.1-1.32,1.03.56-1.45,6.07-.53,6.58.72.39,2.47-2.81,6.58-5.79,2.66-1.93,4.85-3.51,7.37-3.16,3.51.49,5.01,4.36,6.84,3.68.87-.32.65-1.24,1.84-3.16.2-.32,2.96-4.65,6.05-4.47,1.09.06.79.6,3.68,1.84,2.03.87,2.97.94,3.42,1.84.59,1.17-.26,2.52,0,2.63.49.22,1.51-3.04,4.21-5.26,2.56-2.11,6.87-3.67,9.21-2.1,1.35.91.97,2.13,3.42,5,1.15,1.35,1.72,2.02,2.42,2.27,2.67.94,4.42-2.85,9.42-4.11.73-.18.13.04,8.68.26,4.05.11,5.65.09,7.1,1.32,1.46,1.23,1.53,2.64,2.63,2.76,1.34.15,1.95-1.88,3.95-3.55,2.82-2.37,6.46-2.37,9.21-2.37,2.18,0,5.61,0,8.81,1.97.62.39,2.4,1.56,5,2.5,1.55.56,2.41.68,3.03.26.76-.51.57-1.43,1.58-2.37.12-.11.92-.85,1.71-.92,2-.19,2.57,4.02,6.05,6.58,3.34,2.45,7.44,2.19,7.5,1.97.05-.2-3.17-.7-3.29-1.97-.08-.87,1.3-2.11,2.63-2.1,2.42.02,2.21,4.15,6.18,6.97,2.89,2.05,4.8,1.15,8.55,4.08.58.45,1.31,1.08,2.5,2.37,5.21,5.64,8.1,11.92,8.42,12.63,3.3,7.3,3.2,11.67,4.74,11.71,1.41.03,2.68-3.59,3.55-6.05,1.26-3.56.63-4.05,1.84-7.24,1.48-3.86,2.83-4.23,2.63-6.31-.18-1.93-1.38-2.04-2.63-5.26-.86-2.22-1.47-5.21-.66-5.66.82-.45,2.69,1.86,3.03,1.58.34-.28-1.82-2.3-2.63-5.26-1.13-4.13,1.56-5.72.53-10.26-.52-2.3-1.21-1.89-2.1-5.13-.83-3.02-.44-4.14-1.32-6.45-.76-1.99-1.77-3.06-3.16-4.74-3.43-4.13-6.06-8.23-7.37-10.52-3.18-5.59-1.78-6.26-4.6-10.26-3.29-4.65-4.77-3.15-7.5-7.37-2.44-3.76-2.61-7.04-6.45-11.97-.39-.5-1.81-2.3-2.63-1.97-1,.4-.07,3.57-1.18,4.08-.97.45-3.18-1.3-3.03-2.63.13-1.1,1.82-1.45,1.71-2.1-.12-.71-2.24-.9-3.55-1.05-2.73-.33-5.35-1.24-8.02-1.84-8.09-1.82-8.35-7.63-14.34-7.76-4.09-.09-5.49,2.58-9.34,1.45-2.83-.84-2.65-2.46-5.26-3.16-3.65-.97-5.02,1.92-11.18,2.76Z"/>
    <g id="Layer_4" data-name="Layer 4">
      <g>
        <path class="cls-14" d="M605.92,122.4c-2.34,1.75-5.56,4.81-7.1,9.47-1.12,3.39-.96,6.4-.79,9.47.26,4.74,1.14,4.92,1.58,9.47.71,7.37-1.5,8.02-.39,13.42,1.11,5.42,3.73,6.73,2.76,9.87-.8,2.58-3.44,4.53-5.92,5.13-2.51.61-3.03-.62-11.05-1.97-.97-.16-4.25-.69-6.71.39-.5.22-1.3.66-2.13,1.28-1.11.83-1.94,1.47-1.82,1.88.26.86,4.23-.69,7.1,1.18,1.36.89,2.03,2.26,2.37,3.16"/>
        <path class="cls-14" d="M593.69,186.34c.3-.83,1.13-2.78,3.16-4.34,2.46-1.89,5.09-1.98,5.92-1.97"/>
      </g>
    </g>
    <path id="eyebriw-2" data-name="eyebriw" class="cls-16" d="M568.05,105.88c3.36,2.63,5.44,7.88,3.92,9.9-.95,1.26-3.13,1.06-4.64.94,0,0-12.98-1.01-26.39.9-5.89.84-11.04,2.52-11.91,2.81-7.03,2.33-10.61,4.77-11.29,3.89-.78-1,2.74-5.65,7.03-9.07,3.41-2.72,7.29-4.66,18.19-7.37,13.99-3.49,21.06-5.17,25.11-2Z"/>
    <path class="cls-4" d="M608.19,120.95c-.05.7,3.95,1.52,5.93,1.93,5.1,1.05,8.97.9,10.81.89,8.54-.06,9.08,2.63,24.79,5.02,1.61.24,9.91,1.51,10.11.67.1-.42-1.91-1.25-4.47-2.31-3.82-1.58-6.82-2.47-7.29-2.61-6.05-1.79-9.08-2.68-11.07-3.14-12.48-2.89-28.71-1.83-28.8-.44Z"/>
    <path class="cls-4" d="M569.59,116.59c.04.7-3.97,1.47-5.96,1.85-5.12.98-8.98.77-10.82.73-8.53-.18-9.11,2.5-24.86,4.67-1.61.22-9.93,1.37-10.12.53-.09-.42,1.93-1.23,4.5-2.25,3.84-1.52,6.85-2.38,7.33-2.51,6.08-1.7,9.11-2.55,11.11-2.99,12.52-2.72,28.73-1.42,28.81-.03Z"/>
  </g>
  <g id="Layer_7" data-name="Layer 7">
    <path class="cls-24" d="M500.76,132.04c1.28-.48,4.62,9.98,14.12,23.25,3.84,5.36,5.76,8.04,9.19,11.48,6.57,6.56,10.62,7.82,13.09,13.64,1.49,3.52,2.65,9.27.22,11.22-2.96,2.36-10.07-1.85-13.64-4.73-3.25-2.62-5-5.43-8.49-11.04-3.84-6.16-6.09-11.49-7.41-14.62-3.18-7.54-4.51-12.91-5.81-18.27-1.19-4.89-2.29-10.53-1.27-10.92Z"/>
    <path class="cls-17" d="M668.06,155.63c-.59-.27-4.91,8.6-10.38,12.91-1.3,1.02-2.53,1.71-2.53,1.71-3.18,1.67-5.78,1.28-11.98,5.32-5.86,3.82-7.97,6.98-9.02,9.68-.42,1.08-2.01,5.16-.22,7.04.53.55,1.9,1.5,6.16.44,9.15-2.27,21.28-10.2,23.8-20.82.34-1.43.56-3.12,1.49-6.67,1.5-5.74,3.06-9.44,2.69-9.61Z"/>
    <path class="cls-19" d="M574.35,180.81c-.06.44-.09,1.09.13,1.79.77,2.48,3.96,3.45,6.74,4.25,2.52.73,5.98,1.73,10.7,1.03,2.86-.43,8.83-1.32,10.7-5.42.69-1.52,1.16-4.22-.15-5.42-.04-.04-.8-.72-1.81-.63-1.36.12-1.76,1.52-3.03,2.39-1.15.79-2.5.78-4.98.44-7.02-.96-8.51-2.56-11.61-2.21-1.7.19-4.06.99-6.7,3.79Z"/>
    <g>
      <path class="cls-1" d="M701.79,203.76c.98-.43,2.77-1.12,4.67-1.5.9-.18,2.21-.44,3.98-.47,1.56-.03,2.78.14,4.12.32,2.28.31,2.12.48,3.3.55,1.97.12,2.84-.34,5.5-.71.04,0,.09-.01.16-.02,1.2-.22,2.79-.4,4.65-.29,9.72.58,17.14,8.6,16.31,10.17-.64,1.21-6.47-.73-9.98.86-.22.1-.99.47-2.11.84-.26.09-1.3.42-3.26.8-3.4.65-6.01.71-10.03.79-4.48.09-6.82.14-9.89-.4-.84-.15-1.37-.27-1.83-.42-1.17-.38-1.99-.78-2.14-.86-2.7-1.34-12.36.08-13.15-1.8-.74-1.74,6.19-6.31,9.7-7.85Z"/>
      <path class="cls-2" d="M712.22,220.09c1.21.69,3.19,1.61,5.77,1.92,4.16.51,7.41-.84,8.79-1.51"/>
      <path class="cls-9" d="M707.25,202.28c-.58.2-1.47.51-2.56.9-.27.1-.49.18-.69.25-.51.19-.88.33-.9.33-1.39.52-4.09,1.54-4.06,2.07.04.84,6.88,1.32,23.64,1.44,11.43.08,15.77-.09,15.94-1.16.19-1.21-5-3.25-5.59-3.48-1.6-.63-3.07-.85-3.24-.88-.29-.05-.62-.09-1.02-.12-2.04-.11-3.89.32-4.85.55-1.16.27-1.48.45-2.74.68-.47.09-1.81.33-3.12.32-2.2,0-3.11-.7-4.95-1.1-1.34-.3-3.3-.46-5.86.18Z"/>
    </g>
    <g>
      <path class="cls-18" d="M651.05,132.58c-.39,1.02-1.18,1.59-1.97,2.13-1.71,1.19-3.16,1.35-5.65,1.95-2.89.7-2.94.97-4.92,1.45-2.59.62-4.18.56-15.46-.38-3.68-.31-5.52-.48-5.9-1.43-.66-1.64,2.37-4.27,3.07-4.88,5.92-5.13,13.91-5.06,16.16-5.02,7.4.16,14.91,2.87,14.91,2.87,0,0,.28,1.94-.25,3.31Z"/>
      <path class="cls-10" d="M656.18,130.45c-2.12-.63-5.19-1.49-8.94-2.32-6.39-1.41-10.59-2.33-16.17-2.12-3.58.14-7.63.33-12.06,2.69-2.37,1.26-4.09,2.73-5.21,3.84"/>
      <path class="cls-2" d="M651.23,133.91c-1,.59-2.35,1.32-4,2.05-3.88,1.72-7.04,2.39-7.72,2.53-2.02.41-6.41,1.27-11.96.32-2.58-.44-4.66-1.14-6.12-1.72"/>
      <path class="cls-2" d="M613.54,138.02c.57-.52,1.42-1.3,2.44-2.27,2.62-2.51,4.06-4.15,4.77-4.85,1.62-1.62,4.5-3.47,9.99-4.22"/>
      <path class="cls-23" d="M617.15,135.27c.31.41,2.4-1.19,5.74-2.67,8.12-3.61,16.54-3.37,21.52-3.22,4.1.12,6.86.58,6.93.23.08-.44-4.23-1.67-8.19-2.37-3.83-.68-7.85-1.35-12.87-.38-1.88.36-4.77.95-7.85,2.94-3.13,2.02-5.65,4.97-5.27,5.46Z"/>
      <path class="cls-3" d="M648.15,131.43c.65,1.64-.58,3.47-.7,3.64-.78,1.13-1.78,1.47-7.28,2.75-4.93,1.14-5.67,1.22-6.47.67-1.48-1.04-1.92-3.49-1.25-5.33.75-2.04,2.86-2.82,4.32-3.35,4.14-1.52,10.24-1.24,11.38,1.63Z"/>
      <path class="cls-8" d="M642.86,134.7c-.13-.35-.36-.54-.41-.58-.39-.32-.85-.31-1.05-.31-.87.01-2.17.59-2.19,1.52,0,.67.66,1.22,1.22,1.42.78.28,1.77.05,2.23-.65.03-.04.44-.7.19-1.4Z"/>
      <path class="cls-9" d="M647.5,133.65c-.21.13-.39.16-.66.22-.41.08-.84.17-1.32,0-.63-.22-.96-.73-1.05-.88-.08-.13-.49-.88-.17-1.7.38-.97,1.43-1.18,1.59-1.21.16-.03,1.21-.2,1.94.58.56.61.61,1.44.41,2.03-.05.13-.22.66-.73.96Z"/>
    </g>
    <path class="cls-14" d="M559.24,208.45c3.81-1.27,8.23-2.38,13.19-3.02,6.18-.8,21.16-2.68,36.27,4.67,2.17,1.06,3.87,2.07,4.95,2.75"/>
    <path class="cls-14" d="M576.55,211.74c1.81,1.03,4.82,2.45,8.79,3.02,4.75.68,8.6-.18,10.72-.82"/>
    <g>
      <path class="cls-18" d="M529.14,131.21c.46.99,1.29,1.5,2.12,1.99,1.79,1.06,3.25,1.12,5.77,1.55,2.93.49,3.01.76,5.01,1.09,2.63.44,4.21.26,15.39-1.48,3.64-.57,5.47-.87,5.79-1.85.54-1.69-2.66-4.09-3.41-4.65-6.27-4.7-14.24-4.06-16.47-3.85-7.37.69-14.66,3.92-14.66,3.92,0,0-.14,1.96.48,3.28Z"/>
      <path class="cls-10" d="M523.87,129.45c2.07-.78,5.07-1.86,8.75-2.95,6.27-1.86,10.39-3.08,15.98-3.27,3.58-.12,7.63-.21,12.22,1.83,2.45,1.09,4.27,2.43,5.47,3.45"/>
      <path class="cls-2" d="M529.06,132.55c1.04.51,2.44,1.15,4.13,1.76,3.99,1.44,7.2,1.88,7.88,1.97,2.04.27,6.48.81,11.96-.53,2.54-.62,4.57-1.47,5.98-2.15"/>
      <path class="cls-2" d="M566.94,133.96c-.61-.47-1.51-1.19-2.59-2.09-2.79-2.32-4.35-3.85-5.1-4.49-1.73-1.5-4.73-3.14-10.26-3.5"/>
      <path class="cls-23" d="M563.15,131.48c-.28.43-2.48-1.02-5.91-2.26-8.36-3.02-16.73-2.18-21.7-1.68-4.08.41-6.81,1.07-6.89.73-.11-.43,4.1-1.97,8-2.95,3.77-.95,7.73-1.9,12.81-1.29,1.9.23,4.83.61,8.04,2.38,3.26,1.79,5.99,4.56,5.65,5.08Z"/>
      <path class="cls-3" d="M543.16,129.24c-.66,1.64-.06,3.56.82,4.76,1.92,2.62,5.63,2.31,7.29,2.18,1.23-.1,3.99-.33,5.77-2.47.39-.47,1.47-1.77,1.24-3.3-.32-2.17-3.03-3.25-3.88-3.6-3.85-1.54-9.88-.96-11.23,2.43Z"/>
      <path class="cls-8" d="M549.3,132.55c.1-.35.32-.57.36-.61.36-.34.82-.37,1.03-.38.86-.05,2.21.44,2.29,1.36.06.66-.57,1.26-1.12,1.5-.76.33-1.77.18-2.27-.49-.03-.04-.49-.66-.29-1.38Z"/>
      <path class="cls-9" d="M554.08,131.41c.22.11.4.13.67.17.42.05.85.11,1.32-.09.62-.26.91-.79.98-.95.07-.13.43-.91.05-1.71-.45-.94-1.51-1.08-1.67-1.1-.16-.02-1.22-.12-1.89.72-.52.64-.51,1.48-.27,2.05.05.13.27.64.8.91Z"/>
    </g>
  </g>
  <g id="Layer_9" data-name="Layer 9">
    <path class="cls-6" d="M336.46,572.42c-.24.61,0,4.3.5,11.68.88,13.24,1.53,14.1,2.56,26.32,1.19,14.05.62,16.37,3.23,19.89,2.8,3.78,6.94,5.81,13.95,7.66,19.59,5.19,35.08,2.57,35.08,2.57,45.96-7.77,68.95-11.65,72.65-12.47,56.35-12.43,89.01-.41,90.16-6.08,2.89-14.34-210.02-70.51-218.12-49.57Z"/>
    <path class="cls-12" d="M803.07,488.4c.44,1.01-3.33,11.65-10.89,32.87-2.2,6.19-3.33,9.29-3.66,10.26-7.03,20.29-6.67,28.54-10.36,40.89-8.11,27.19-20.8,24.02-25.73,47.96-.99,4.78-2.43,14.36-7.77,26.65-2.16,4.97-4.29,9.42-6.34,12.37-11.79,16.97-59.99,4.03-106.27-7.22-72.71-17.68-53.48-9.99-111.02-25.39-1.43-.38-78.97-12.95-95.24-27.84-1.15-1.05-6.07-5.84-13.83-7.66-5.88-1.37-9.64-.16-14.79.4-9.8,1.07-17.94-1.35-34.23-6.19-16.87-5.02-15.56-7.57-23.59-8.33-1.86-.17-5.93-.42-8.57-3.32-3.25-3.58-3.12-7.73-3.12-7.73.06-1.93.74-3.25-.08-4.19-.96-1.09-2.47.02-3.69-.84-.46-.33-1.62-1.46,0-13.08.24-1.74.4-2.67.17-4.03-.5-2.91-2.11-3.87-3.4-6.22-2.06-3.76-2.44-9.5-.05-11.57,2.22-1.93,5.73.27,7.07-1.59.81-1.13-.09-2.48-1.28-6.61-1.36-4.74-2.34-8.28-1.26-11.46.86-2.53,2.74-3.99,4.26-5.14,8.82-6.68,19.23-2.85,20.93-7,.88-2.14-1.83-3.36-1.99-9.26-.05-1.88-.16-5.87,1.99-7.1.59-.33,1.59-.61,6.29,1.26,5.32,2.11,6.52,3.46,9.78,4.42,3.3.97,5.85.7,7.84.62,8.64-.36,18.56,2.26,23.15,4.08,12.15,4.82,18.8,16.62,22.72,23.58,5.33,9.46,4.74,13.75,10.55,18.7,6.58,5.6,14.51,6.19,17.82,6.49,26.1,2.38,22.67,9.43,72.98,16.18,46.84,6.29,38.56-1.22,70.49,4.91h0c24.82,3.31,29.32,1.92,62.79,3.57,6.49.32,7.8.45,9.57-.64,10.01-6.11-3.98-27.11,7.33-46.17,4.54-7.65,13.2-15.06,17.77-26.85.77-1.98,1.33-3.15,2.26-5.56,4.1-10.61,5.03-14.6,8.47-15.94,5.66-2.21,13.02,4.78,16.57,7.67,28.46,23.11,80.14-.39,86.37,14.03Z"/>
    <path class="cls-10" d="M324.04,543.99c2.63-.72,6.19-1.4,10.43-1.43,4.95-.03,9.03.84,11.89,1.69"/>
    <path class="cls-10" d="M327.66,563.62c3.98-1.26,10.47-2.7,18.32-1.76,3.93.47,7.28,1.43,9.92,2.42"/>
    <path class="cls-10" d="M327.66,520.83c2.22.17,4.89.18,7.89-.2,4.85-.61,8.77-2.03,11.54-3.3"/>
    <path class="cls-10" d="M350.31,494.4c8.04.07,13.61,1.62,17.31,3.1,1.52.61,3.83,1.65,7.37,2.65,3.95,1.11,7.31,1.58,9.6,1.8"/>
    <path class="cls-20" d="M320.64,537.77c.2-.08.49-.19.85-.31,0,0,2.16-.75,4.43-1.18,4.37-.82,10.45-.53,10.45-.53.84-.89,2.16-2.07,4.02-2.89,4.92-2.15,8.66.4,16.21,2.05,11.73,2.55,17.34-.43,20.63,3.99.97,1.31,1.92,3.5,1.12,4.65-1.23,1.78-5.69-.2-16.05-1.12-6.04-.53-9.35-.28-10.76,1.72-.69.97-.79,2.17-2.17,3.19-1.62,1.2-2.89.57-3.79,1.47-1.37,1.38-.52,4.98.95,7.33,2.74,4.38,8.26,5.45,12.57,6.23,9.85,1.77,13.93-1.21,18.63,2.26,2.72,2,4.58,5.37,3.76,6.66-1.48,2.3-12.59-.45-15.31-1.13-1.85-.46-4.49-1.2-6.51.18-.9.61-2.03,1.88-1.93,3.04.28,3.49,11.61,6.53,22.12,6.69,12.89.2,15.64-4.09,27.65-2.49,5.7.76,8.64,2.2,13.85,4.76,3.19,1.57,4.73,2.69,5.67,4.53,1.72,3.32,1.12,8.21-1.23,9.48-1.7.92-3.31-.6-8.82-2.52,0,0-4.7-1.64-10.07-2.52-6.42-1.04-11.14.17-14.23.64-13.93,2.14-16.46-7.24-39.76-10.83-2.73-.42-8.16-2.35-19.03-6.2-1.43-.51-3.54-1.29-4.73-3.29-1.32-2.21-.31-3.87-1.4-6.76-1.05-2.78-2.8-3.41-4.1-5.17-1.63-2.21-2.63-6.3.48-14.59"/>
  </g>
  <g id="shirt">
    <path class="cls-7" d="M518.11,272.84c.45-.53,2.16-2.67,4.22-2.51,2.4.19,3.94,3.41,4.46,4.44,0,0,3.53,7.09,13.6,17.86,5.56,5.94,12.2,7.68,25.33,11.12,6.13,1.6,12.17,3.18,19.91,3.14,11.32-.06,19.97-4.06,37.27-12.08,15.57-7.21,23.35-10.81,27.74-16.06,2.35-2.82,4.63-4.36,9.17-7.45,2.25-1.53,4.05-2.55,5.96-2.13,2.43.52,3.73,3.07,4.41,4.27,2.84,5.04,8.17,8.21,12.19,12.38,6.48,6.74,21.67,12.48,48.05,20.33,19.79,5.88,25.95,7.03,47.22,13.6,14.39,4.45,21.59,6.67,22.96,7.68,14.17,10.39,14.97,37.83,16.57,92.73.26,8.82.35,17.52-1.31,28.55-2.07,13.76-4.16,13.2-5.22,25.19-.88,9.93,0,16.58-4.18,19.15-2.29,1.41-4.65.67-8.58,0-.28-.05-8.75-.18-25.68-.45-15.67-.25-22.44-3.04-24.51-3.71-3.42-1.1-6.03-2.23-8.19-3.16-10.02-4.32-17.03-7.34-16.69-9.69.4-2.76,11.02-4.95,20.27-2.95,3.74.81,4.68,1.74,10.17,2.75,4.56.84,11.94,2.2,13.74-.82.88-1.47.08-3.39,0-3.57-1.24-2.86-4.93-2.68-13.74-5.5-1.91-.61-4.3-1.32-9.07-2.75-6.34-1.89-9.28-2.72-12.92-3.57-2.64-.62-4.91-1.07-7.69-1.37-4.49-.49-6.78-.71-8.52.55-2.36,1.7-1.32,4.05-3.57,6.32-2.68,2.71-5.82,1.08-9.62,2.47-3.74,1.38-5.77,4.83-10.68,17.14-5.19,13.02-3.98,12.27-6.63,17.68-7.27,14.87-14.4,18.89-15.83,38.2-.71,9.61.57,17.42-4.42,20.6-3.73,2.37-7.88.2-16.89-.94-8.66-1.1-12.78-.1-23.42.57-40.46,2.56-86.99-5.2-94.71-6.49h0c-8.99-1.71-26.82-5.1-50.17-9.45,0,0-12.83-1.85-30.66-7.72-7.32-2.41-10.57-3.93-13.84-6.29-7.31-5.29-9.51-11.06-14.53-18.9-5.59-8.73-11.16-17.41-19.44-22.63-17.04-10.72-34.65.13-41.53-10.07-.67-.99-.85-1.61-1.57-15.84-1.19-23.33-.91-25.44.31-28.2,3.88-8.78,9.95-7.59,14.51-16.31,3.97-7.59,1.6-12.77,1.13-25.61-.24-6.62-.92-33.03,12.77-55.55,2.54-4.18,5.79-9.43,11.85-14.53,9.77-8.22,19.61-9.94,34.42-13.14,26.19-5.65,39.28-8.48,43.69-10.72,5.92-3.01,35.48-18.93,41.86-26.56Z"/>
    <path class="cls-14" d="M697.91,375.01c3.4,14.23,4.52,26.46,4.83,35.5.62,18.11-1.68,31.89-3.27,41.1-2.34,13.53-5.52,24.76-8.29,33.12"/>
    <path class="cls-14" d="M747.96,339.62c-5.79,4.68-13.46,12.02-20.13,22.65-7.12,11.33-5.45,20.99-13.79,40.95-2.72,6.52-6.09,13.02-6.09,13.02-1.44,2.89-2.72,5.34-3.71,7.2"/>
    <path class="cls-14" d="M429.53,523.65c-.62-9.22-1.96-23.03-5.22-39.57-3.96-20.1-7.66-28.51-11.25-45.62-2.5-11.92-5.16-29.15-5.24-50.84"/>
    <path class="cls-14" d="M423.3,451.82c.56,6.27,1,12.82,1.28,19.62.43,10.38,1.46,15.63.35,15.92-1.11.29-2.2-4.92-6.67-11.8-5.15-7.92-8.93-9.08-19.35-21.04-2.31-2.65-4.12-4.89-5.27-6.34"/>
    <path class="cls-14" d="M391.25,474.93c3.96,2.22,8.03,4.62,12.17,7.22,7.35,4.62,14.05,9.31,20.13,13.92"/>
    <path class="cls-14" d="M509.09,280.21c-.47,3.16,2.94,5.98,4.25,7.29,12.64,12.58,10.12,14.36,17.95,20.89,17.65,14.69,41.61,14.96,47.27,15.02,16.1.18,27.85-4.22,41.04-9.16,12.31-4.61,6.74-4.33,36.64-19.05,8.97-4.42,21.28-10.25,20.4-14.52-.26-1.29-1.5-1.25-4.75-4.73-3.95-4.23-4.12-6.18-6.12-6.76-2.74-.79-5.51,2.06-9.34,5.5,0,0-9.31,8.35-18.87,14.29-5.4,3.36-4.79,1.59-16.7,6.81-14.33,6.28-22.69,12.1-31.48,12.64-4.36.27-8.84-.09-8.84-.09-1.49-.12-4.17-.39-7.47-1.05-3.91-.78-6.27-1.63-10.81-3.11-10.33-3.38-9.57-2.72-11.73-3.66-9.92-4.32-15.99-13.72-19.22-18.71-4.36-6.75-5.44-11.18-8.99-11.46-2.27-.18-4.38,1.42-8.25,4.34-3.05,2.3-4.69,3.58-4.99,5.54Z"/>
  </g>
  <g id="Layer_10" data-name="Layer 10">
    <path class="cls-5" d="M697,469c.65-1.11,1.69-2.93,3.81-4.27,2.74-1.74,4.01-.59,6.91-2.45,1.02-.65,2.29-1.88,4.83-4.34,1.53-1.49,1.77-1.81,2.5-2.16,2.01-.95,4.02-.24,6.24.36,3.36.91,6.87,1.18,10.31,1.78,4.52.79,6.78,1.18,9.09,1.39,3.77.34,4.51.11,6.8.69,2.47.63,2.24,1.07,6.76,2.95,5.35,2.23,6.26,1.86,8.11,3.58,1.02.95,1.55,1.8,3.14,2.75,1.62.97,2.2.75,3.67,1.54,1.46.79,4.18,2.77,4.04,4.79-.13,1.98-2.94,3.22-4.78,4-5.17,2.21-10.22,1.96-13.57,1.5-6.7-.92-5.95-2.56-14.16-3.99-.93-.16-5.77-.97-12.05-.53-3.01.21-4.44.58-4.43.71.02.26,5.32-.94,10.26,1.47,1.2.59,2.05,1.22,4.79,3.83,6.77,6.43,6.76,7.44,10.69,10.83,3.83,3.32,4.77,3.16,8.83,7.02,2.61,2.48,2.39,2.7,4.51,4.55,5.01,4.36,7.07,3.85,8.74,6.75,1.4,2.44,1.65,5.79.37,8.61-1.29,2.83-4.31,5.57-7.24,5.39-1.77-.11-2.56-1.22-3.9-.73-1.54.57-1.68,2.48-2.56,3.93-2.59,4.25-10.99,3.57-11.77,3.5-4.23-.39-6.1-2.17-17.22-10.26-9.8-7.13-11.93-8.35-15.21-9.16-6.15-1.51-13.02-.74-13.37.92-.14.65.78,1.24,3.11,3.11,2.49,2,4.74,4.28,7.22,6.29,8.06,6.54,14.91,12.1,17.62,16.36.4.63.91,1.54,1.99,2.46,1.97,1.66,3.34,1.22,5.05,2.91.45.44,1.41,1.42,1.71,2.98.41,2.11-.71,3.79-.95,4.16-.22.33-1.24,1.81-3,2.39-2.35.77-3.85-.78-8.38-2.45-4.96-1.83-5.46-.81-8.44-2.48-2.61-1.46-3.13-2.73-5.96-5.46-.58-.56-4.81-4.59-9.71-7.02-2.36-1.17-8.6-4.26-15.46-2.7-5.46,1.24-10.29,5.2-14.56,8.69-3.1,2.54-3.84,3.63-4.65,3.33-2.92-1.05-.76-17.6,3.81-31.84,7.33-22.84,18.33-31.87,26.47-45.68Z"/>
    <path class="cls-2" d="M699.96,489.22c1.69.72,4.31,1.71,7.61,2.48,7.7,1.8,9.66.17,15.22,2.04,3.34,1.13,5.85,2.95,10.88,6.6,2.78,2.02,4.69,3.67,8.39,6.89,6.06,5.27,6.88,6.51,10.38,9.44,2.65,2.21,6.73,5.32,12.37,8.46"/>
    <path class="cls-13" d="M696.36,514.54c-1.01-.81-1.12-2.54-1.88-2.52-.79.02-.79,1.91-1.89,2.52-2.2,1.22-8.52-2.82-7.98-6.17.49-3.1,6.61-4.15,7.09-4.23,3.32-.54,5.04.44,8.56,1.06,7.5,1.31,8.68-1.58,14.06-.54,4.52.88,4.35,3.04,14.19,10.2,4.89,3.56,9.11,6.07,13.16,8.48,10.1,6.01,14.45,7.42,14.14,8.61-.38,1.45-7.62,2.15-14.29-.52-8.09-3.25-7.68-8.39-17.69-14.8-5.67-3.63-10.28-6.58-15.63-5.53-4.97.98-9.6,5.22-11.83,3.44Z"/>
    <path class="cls-13" d="M703.56,476.08c-.28-2.01,3.5-4.15,5.98-5.08,4.47-1.69,8.58-.96,9.91-.73,15.53,2.66,16.88-.71,30.67,2.94,5.62,1.49,17.08,5.15,16.72,7.36-.34,2.11-11.43,3-21.43,1.61-15.43-2.15-20.89-8.71-28.7-5.24-1.76.79-5.44,2.88-9.47,1.79-.47-.13-3.43-.97-3.67-2.65Z"/>
  </g>
</svg>